#!OML:ASF H:\Terrain\Patient Classification 1\Walking\liu\liu.ASF
:FULLY-SPECIFIED
:DEGREES
290
root 10.0608 17.2591 30.1132 7.0198 -7.86375 2.33923
lowerback -5.49732 2.31798 -2.95481
upperback 0.81112 3.27328 0.553583
thorax 3.72154 1.55838 2.50496
lowerneck -23.4856 -4.59052 -10.4284
upperneck 20.1545 -5.63873 11.4335
head 11.0478 -1.98111 5.01075
rclavicle 3.4837e-014 7.95139e-015
rhumerus -26.4675 11.8818 -86.5703
rradius 39.4818
rwrist -19.2903
rhand -38.1004 -25.3986
rfingers 7.12502
rthumb -11.1361 -55.0831
lclavicle 3.4837e-014 7.95139e-015
lhumerus -41.6371 26.8251 64.2175
lradius 10.7851
lwrist -38.7541
lhand -9.85667 -25.9452
lfingers 7.12502
lthumb 16.1217 3.40429
rfemur -14.5521 -3.99366 16.9385
rtibia 69.7148
rfoot 1.2874 -12.6113
rtoes -8.51425
lfemur -28.5611 6.37422 -28.7529
ltibia 34.2042
lfoot -12.8432 1.44645
ltoes 3.00413
291
root 10.0508 17.2803 30.3127 6.9817 -7.5987 1.78015
lowerback -5.41439 2.17722 -2.50269
upperback 0.825066 3.0434 0.800437
thorax 3.71315 1.45129 2.48542
lowerneck -23.4029 -4.47552 -10.6421
upperneck 20.3855 -5.46514 11.5756
head 11.1066 -1.90437 5.13924
rclavicle -2.13694e-014 6.36111e-015
rhumerus -27.341 12.2863 -86.7645
rradius 38.7836
rwrist -19.6023
rhand -37.7995 -26.6533
rfingers 7.12502
rthumb -10.8458 -56.3532
lclavicle -2.13694e-014 6.36111e-015
lhumerus -39.04 23.2829 68.4646
lradius 11.3893
lwrist -34.2608
lhand -10.4876 -26.1311
lfingers 7.12502
lthumb 15.514 3.26647
rfemur -16.3473 -3.33893 18.1578
rtibia 70.2548
rfoot -0.590585 -13.4174
rtoes -9.38169
lfemur -27.1737 6.16914 -28.0838
ltibia 33.2538
lfoot -13.1615 1.68137
ltoes 0.94951
292
root 10.0512 17.3046 30.5138 6.98913 -7.06486 1.40604
lowerback -5.20992 1.90873 -2.12241
upperback 0.624533 2.64675 1.0066
thorax 3.42081 1.26696 2.43986
lowerneck -22.9162 -4.26412 -10.6168
upperneck 20.3915 -5.1746 11.3863
head 10.9715 -1.80749 5.10977
rclavicle -2.44505e-014 4.37326e-015
rhumerus -28.5926 12.605 -86.9645
rradius 38.0796
rwrist -19.6412
rhand -37.0949 -26.6319
rfingers 7.12502
rthumb -10.1662 -56.3663
lclavicle -2.44505e-014 4.37326e-015
lhumerus -37.3557 20.1703 71.7841
lradius 12.2209
lwrist -30.3066
lhand -10.919 -26.2478
lfingers 7.12502
lthumb 15.0985 3.18152
rfemur -17.8417 -3.0446 18.9858
rtibia 70.4457
rfoot -3.27428 -13.7287
rtoes -4.25373
lfemur -25.9092 5.71797 -27.6376
ltibia 32.4551
lfoot -13.5381 1.75844
ltoes 0.653627
293
root 10.1079 17.3498 30.7195 6.99741 -6.05434 2.28258
lowerback -5.2666 1.4448 -2.24002
upperback 0.522022 2.04593 0.71566
thorax 3.38681 0.969832 2.15921
lowerneck -22.582 -4.22393 -10.688
upperneck 20.2699 -5.08227 11.2566
head 10.8496 -1.79651 5.08219
rclavicle -6.31141e-015 1.07344e-014
rhumerus -29.3855 12.4578 -87.0178
rradius 36.8809
rwrist -19.1217
rhand -36.5538 -25.3976
rfingers 7.12502
rthumb -9.64413 -55.1569
lclavicle -6.31141e-015 1.07344e-014
lhumerus -35.6979 17.0931 74.7966
lradius 13.2289
lwrist -26.4389
lhand -10.7838 -26.2382
lfingers 7.12502
lthumb 15.2287 3.18126
rfemur -19.1256 -4.31856 17.7828
rtibia 70.4404
rfoot -5.03954 -12.0811
rtoes -1.9957
lfemur -24.5862 4.67413 -28.7983
ltibia 31.7594
lfoot -14.1404 1.74542
ltoes 2.12177
294
root 10.1028 17.3897 30.9364 6.97097 -5.85236 1.74356
lowerback -5.3548 1.30923 -1.72446
upperback 0.537365 1.82712 0.895532
thorax 3.47364 0.867578 2.04153
lowerneck -22.4262 -4.13356 -10.6105
upperneck 20.2714 -4.98543 11.2087
head 10.8046 -1.75635 5.06614
rclavicle -1.5704e-014 8.74653e-015
rhumerus -30.2164 12.5414 -87.2408
rradius 35.8896
rwrist -18.7851
rhand -36.2633 -25.2519
rfingers 7.12502
rthumb -9.36388 -55.024
lclavicle -1.5704e-014 8.74653e-015
lhumerus -34.1549 12.6907 78.0655
lradius 14.6737
lwrist -21.5175
lhand -10.5496 -26.0321
lfingers 7.12502
lthumb 15.4543 3.37008
rfemur -20.702 -3.99814 18.8183
rtibia 70.2183
rfoot -6.16691 -11.4047
rtoes -7.4222
lfemur -23.17 4.25753 -28.1064
ltibia 30.7926
lfoot -14.4834 2.14596
ltoes 1.17624
295
root 10.0865 17.4047 31.0926 7.33333 -5.7904 1.39625
lowerback -5.16926 1.21207 -1.61884
upperback 0.321806 1.68355 1.01847
thorax 3.15252 0.802939 2.08865
lowerneck -22.3017 -4.0016 -10.482
upperneck 20.2936 -4.88752 11.3202
head 10.7769 -1.69162 5.10267
rclavicle 2.05245e-014 1.98785e-015
rhumerus -31.2078 13.0735 -87.6142
rradius 35.334
rwrist -18.8252
rhand -35.6773 -25.9769
rfingers 7.12502
rthumb -8.79843 -55.7735
lclavicle 2.05245e-014 1.98785e-015
lhumerus -32.796 8.08401 81
lradius 16.1961
lwrist -16.8261
lhand -10.9865 -25.599
lfingers 7.12502
lthumb 15.0335 3.8352
rfemur -23.2587 -3.05771 19.8478
rtibia 70.1264
rfoot -7.50278 -11.3188
rtoes -10.1407
lfemur -22.4437 3.76404 -27.6015
ltibia 29.6322
lfoot -14.2621 2.69041
ltoes 0.369229
296
root 10.1069 17.4139 31.3628 7.01699 -5.23253 3.03162
lowerback -6.1979 0.87874 -2.89019
upperback 0.854746 1.37168 0.541613
thorax 4.28253 0.603829 2.31801
lowerneck -22.6914 -3.98162 -10.3873
upperneck 20.324 -4.83812 11.2508
head 10.8499 -1.65875 5.07114
rclavicle -1.42131e-014 1.43125e-014
rhumerus -31.5635 13.319 -87.6511
rradius 34.677
rwrist -18.7343
rhand -34.7486 -26.0779
rfingers 7.12502
rthumb -7.90212 -55.9103
lclavicle -1.42131e-014 1.43125e-014
lhumerus -30.912 4.34506 83.3593
lradius 17.211
lwrist -13.1427
lhand -11.421 -25.2418
lfingers 7.12502
lthumb 14.6149 4.22324
rfemur -24.0537 -3.72592 17.8997
rtibia 69.7197
rfoot -9.47796 -9.77332
rtoes -11.1228
lfemur -20.4388 3.2824 -29.5522
ltibia 28.678
lfoot -14.9473 2.57142
ltoes 0.82631
297
root 10.1402 17.4201 31.5206 7.07615 -4.13542 3.62423
lowerback -5.92582 0.443098 -2.97561
upperback 0.922875 0.797728 0.34583
thorax 4.23604 0.319432 2.10478
lowerneck -23.156 -3.91357 -10.0583
upperneck 20.4936 -4.67487 10.673
head 10.9518 -1.61499 4.83048
rclavicle -1.16786e-014 -5.96354e-015
rhumerus -31.9625 13.7071 -87.7441
rradius 33.9271
rwrist -18.6672
rhand -34.0913 -25.8941
rfingers 7.12502
rthumb -7.2677 -55.7492
lclavicle -1.16786e-014 -5.96354e-015
lhumerus -29.3443 0.866716 85.1696
lradius 18.3833
lwrist -9.91509
lhand -11.5823 -25.1789
lfingers 7.12502
lthumb 14.4595 4.2973
rfemur -25.7946 -4.69427 17.3271
rtibia 69.2102
rfoot -10.7418 -8.84026
rtoes -12.6486
lfemur -19.4236 2.40231 -30.3225
ltibia 28.0317
lfoot -15.2455 2.44837
ltoes -0.242432
298
root 10.1255 17.4413 31.7262 7.09917 -3.64 2.58863
lowerback -5.575 0.198752 -2.11996
upperback 0.682978 0.383694 0.719905
thorax 3.81463 0.137851 1.968
lowerneck -22.9527 -4.01042 -10.4538
upperneck 20.5499 -4.78337 11.005
head 10.9687 -1.66196 5.00729
rclavicle -1.68967e-015 6.36111e-015
rhumerus -33.3973 14.5786 -88.2785
rradius 33.4563
rwrist -18.4783
rhand -33.5075 -26.6684
rfingers 7.12502
rthumb -6.70417 -56.5423
lclavicle -1.68967e-015 6.36111e-015
lhumerus -28.8106 -2.26278 86.5016
lradius 19.9932
lwrist -7.14888
lhand -11.9468 -25.3452
lfingers 7.12502
lthumb 14.1083 4.15585
rfemur -27.1957 -4.05521 18.9806
rtibia 68.1707
rfoot -11.9815 -8.94126
rtoes -13.2977
lfemur -18.4799 2.01207 -29.057
ltibia 27.7737
lfoot -15.8546 2.62548
ltoes -1.67734
